<?xml version="1.0" encoding="UTF-8" standalone="no"?>
<svg
   xmlns:dc="http://purl.org/dc/elements/1.1/"
   xmlns:cc="http://creativecommons.org/ns#"
   xmlns:rdf="http://www.w3.org/1999/02/22-rdf-syntax-ns#"
   xmlns:svg="http://www.w3.org/2000/svg"
   xmlns="http://www.w3.org/2000/svg"
   xmlns:sodipodi="http://sodipodi.sourceforge.net/DTD/sodipodi-0.dtd"
   xmlns:inkscape="http://www.inkscape.org/namespaces/inkscape"
   version="1.1"
   x="0px"
   y="0px"
   viewBox="0 0 16 16"
   enable-background="new 0 0 512 512"
   xml:space="preserve"
   id="svg10862"
   sodipodi:docname="noun_31859_173262_cc.svg"
   width="16"
   height="16"
   inkscape:version="0.92.2 2405546, 2018-03-11"><metadata
     id="metadata10868"><rdf:RDF><cc:Work
         rdf:about=""><dc:format>image/svg+xml</dc:format><dc:type
           rdf:resource="http://purl.org/dc/dcmitype/StillImage" /><dc:title></dc:title></cc:Work></rdf:RDF></metadata><defs
     id="defs10866" /><sodipodi:namedview
     pagecolor="#ffffff"
     bordercolor="#666666"
     borderopacity="1"
     objecttolerance="10"
     gridtolerance="10"
     guidetolerance="10"
     inkscape:pageopacity="0"
     inkscape:pageshadow="2"
     inkscape:window-width="1920"
     inkscape:window-height="983"
     id="namedview10864"
     showgrid="false"
     inkscape:zoom="20.771262"
     inkscape:cx="8.3545905"
     inkscape:cy="12.120607"
     inkscape:window-x="0"
     inkscape:window-y="27"
     inkscape:window-maximized="1"
     inkscape:current-layer="svg10862" /><path
     style="fill:#b4b4b4;fill-opacity:1;stroke-width:0.02343736"
     d="M 2.75 3.875 C 2.33544 3.875 2 4.21046 2 4.625 L 2 10.625 C 2 11.0315 2.3229946 11.357904 2.7265625 11.371094 L 4.2480469 7.3144531 C 4.5014751 6.6362231 5.2385122 6.125 5.9628906 6.125 L 12.5 6.125 C 12.5 5.71044 12.164537 5.375 11.75 5.375 L 6.5 5.375 L 5.75 3.875 L 2.75 3.875 z M 5.9628906 6.875 C 5.5505337 6.875 5.0942257 7.192135 4.9492188 7.578125 L 3.2441406 12.125 L 5.8847656 12.125 A 4.25 4.25 0 0 1 5.8261719 11.412109 A 4.25 4.25 0 0 1 10.076172 7.1621094 A 4.25 4.25 0 0 1 13.484375 8.8828125 L 13.957031 7.5800781 C 14.098382 7.1926081 13.875248 6.875 13.462891 6.875 L 5.9628906 6.875 z "
     id="path10856" /><path
     inkscape:connector-curvature="0"
     d="m 10.105212,8.2464296 c -1.7949216,0 -3.2501333,1.45527 -3.2501333,3.2499984 0,1.795527 1.4552117,3.25 3.2501333,3.25 1.795187,0 3.249866,-1.454473 3.249866,-3.25 0,-1.7947284 -1.454679,-3.2499984 -3.249866,-3.2499984 z m 2.238992,3.8245464 h -1.658212 v 1.659611 H 9.537078 V 12.070976 H 7.8785989 V 10.922015 H 9.537078 V 9.2636006 h 1.148914 v 1.6585474 h 1.658212 z"
     id="path2"
     style="fill:#b4b4b4;fill-opacity:1;stroke-width:0.1331176" /></svg>