<?xml version="1.0"?>
<svg
    xmlns="http://www.w3.org/2000/svg"
    xmlns:xlink="http://www.w3.org/1999/xlink"
    version="1.1"
    x="0px"
    y="0px"
    viewBox="0 -8 52 65"
    width="16"
    height="16"
    style="enable-background:new 0 0 52 52;"
    xml:space="preserve">
  <path
    fill="#b4b4b4"
    d="M50.9757347,1.9699707c-0.0299683-0.5100098-0.4400024-0.9100342-0.9499512-0.9400635
    c0,0-0.4400024-0.0299072-1.2400513-0.0299072c-3.7999878,0-16.829958,0.6300049-24.9499531,8.7598877
    c-2.5500488,2.5400391-4.7800293,5.3500977-6.5200195,8.1501465c-1.289978-0.6600342-2.7299795-1.0200195-4.169982-1.0200195
    c-2.3400269,0-4.5599976,0.9299316-6.25,2.6298828l-5.6100464,5.6000977
    c-0.2799683,0.2800293-0.3699952,0.7099609-0.2099609,1.0899658c0.1499634,0.3699951,0.5199585,0.6199951,0.9199829,0.6199951
    h11.4899902c-0.9099731,4.1700439-0.25,7.6099854,1.9100342,9.7700195c2.1399527,2.1400146,5.6399527,2.8200684,9.7799673,1.9099121
    V50c0,0.4000244,0.2399902,0.7698975,0.6099854,0.9200439C25.9157352,50.9799805,26.0457401,51,26.175745,51
    c0.2600098,0,0.5100098-0.0999756,0.7000122-0.2900391l5.6099873-5.5999756
    c2.8099976-2.8200684,3.4100342-6.9799805,1.6099854-10.4299316c2.8000488-1.7401123,5.6000366-3.9700928,8.1500244-6.5200195
    C51.795742,18.6099854,51.005764,2.6400146,50.9757347,1.9699707z M40.5757713,18.5799561
    c-0.9500122,0.9499512-2.2200317,1.4799805-3.5800171,1.4799805c-1.3499756,0-2.6199951-0.5300293-3.5800171-1.4799805
    C32.465786,17.6199951,31.9357548,16.3499756,31.9357548,15s0.5300312-2.6300049,1.4799824-3.5799561
    c0.960022-0.960083,2.2300415-1.4899902,3.5800171-1.4899902c1.3599854,0,2.6300049,0.5299072,3.5800171,1.4899902
    C42.5557518,13.3900146,42.5557518,16.5999756,40.5757713,18.5799561z"/>
  <text
    x="0"
    y="67"
    fill="#000000"
    font-size="5px"
    font-weight="bold"
    font-family="'Helvetica Neue', Helvetica, Arial-Unicode, Arial, Sans-serif">
    Created by Dinosoft Labs
  </text>
  <text
    x="0"
    y="72"
    fill="#000000"
    font-size="5px"
    font-weight="bold"
    font-family="'Helvetica Neue', Helvetica, Arial-Unicode, Arial, Sans-serif">
    from the Noun Project
  </text>
</svg>
