<?xml version="1.0" encoding="UTF-8" standalone="no"?>
<svg
   xmlns:dc="http://purl.org/dc/elements/1.1/"
   xmlns:cc="http://creativecommons.org/ns#"
   xmlns:rdf="http://www.w3.org/1999/02/22-rdf-syntax-ns#"
   xmlns:svg="http://www.w3.org/2000/svg"
   xmlns="http://www.w3.org/2000/svg"
   xmlns:sodipodi="http://sodipodi.sourceforge.net/DTD/sodipodi-0.dtd"
   xmlns:inkscape="http://www.inkscape.org/namespaces/inkscape"
   width="500"
   height="500"
   viewBox="0 0 132.29166 132.29167"
   version="1.1"
   id="svg8"
   inkscape:version="1.0.2 (e86c870879, 2021-01-15)"
   sodipodi:docname="icon.svg"
   inkscape:export-filename="/home/dragon/projects/freerack/icon.png"
   inkscape:export-xdpi="54.380001"
   inkscape:export-ydpi="54.380001">
  <defs
     id="defs2" />
  <sodipodi:namedview
     id="base"
     pagecolor="#000000"
     bordercolor="#666666"
     borderopacity="1.0"
     inkscape:pageopacity="0"
     inkscape:pageshadow="2"
     inkscape:zoom="1.5092397"
     inkscape:cx="182.43631"
     inkscape:cy="270.51547"
     inkscape:document-units="px"
     inkscape:current-layer="layer2"
     showgrid="false"
     units="px"
     inkscape:window-width="1920"
     inkscape:window-height="1051"
     inkscape:window-x="0"
     inkscape:window-y="0"
     inkscape:window-maximized="1"
     inkscape:document-rotation="0" />
  <metadata
     id="metadata5">
    <rdf:RDF>
      <cc:Work
         rdf:about="">
        <dc:format>image/svg+xml</dc:format>
        <dc:type
           rdf:resource="http://purl.org/dc/dcmitype/StillImage" />
        <dc:title></dc:title>
      </cc:Work>
    </rdf:RDF>
  </metadata>
  <g
     inkscape:label="Layer 1"
     inkscape:groupmode="layer"
     id="layer1"
     transform="translate(0,-164.70831)"
     style="display:none">
    <path
       style="fill:none;stroke:#000000;stroke-width:0.26458332px;stroke-linecap:butt;stroke-linejoin:miter;stroke-opacity:1"
       d="m 6.2366072,187.19789 c 0.9449403,0 118.1175628,0 118.1175628,0"
       id="path821"
       inkscape:connector-curvature="0" />
    <path
       inkscape:connector-curvature="0"
       id="path823"
       d="m 6.2366072,275.5688 c 0.9449403,0 118.1175628,0 118.1175628,0"
       style="fill:none;stroke:#000000;stroke-width:0.26458332px;stroke-linecap:butt;stroke-linejoin:miter;stroke-opacity:1" />
    <path
       style="fill:none;stroke:#000000;stroke-width:0.26458332px;stroke-linecap:butt;stroke-linejoin:miter;stroke-opacity:1"
       d="m 6.2366072,231.11879 c 0.9449403,0 118.1175628,0 118.1175628,0"
       id="path825"
       inkscape:connector-curvature="0" />
    <path
       style="fill:none;stroke:#000000;stroke-width:0.26458332px;stroke-linecap:butt;stroke-linejoin:miter;stroke-opacity:1"
       d="m 16.007291,181.64164 v 100.27709 h 0.264584"
       id="path827"
       inkscape:connector-curvature="0" />
    <path
       inkscape:connector-curvature="0"
       id="path829"
       d="m 68.923961,181.64164 v 100.27709 h 0.264584"
       style="fill:none;stroke:#000000;stroke-width:0.26458332px;stroke-linecap:butt;stroke-linejoin:miter;stroke-opacity:1" />
    <path
       style="fill:none;stroke:#000000;stroke-width:0.26458332px;stroke-linecap:butt;stroke-linejoin:miter;stroke-opacity:1"
       d="m 121.84064,181.64164 v 100.27709 h 0.26459"
       id="path831"
       inkscape:connector-curvature="0" />
    <path
       style="fill:none;stroke:#000000;stroke-width:0.26458332px;stroke-linecap:butt;stroke-linejoin:miter;stroke-opacity:1"
       d="m 95.382307,181.64164 v 100.27709 h 0.26459"
       id="path836"
       inkscape:connector-curvature="0" />
    <path
       inkscape:connector-curvature="0"
       id="path838"
       d="m 40.878136,181.64164 v 100.27709 h 0.26459"
       style="fill:none;stroke:#000000;stroke-width:0.26458332px;stroke-linecap:butt;stroke-linejoin:miter;stroke-opacity:1" />
  </g>
  <g
     inkscape:groupmode="layer"
     id="layer2"
     inkscape:label="Layer 2"
     style="display:inline">
    <circle
       style="fill:#000000;fill-opacity:1;stroke:#50ba22;stroke-width:0.0529167;stroke-miterlimit:10;paint-order:markers fill stroke"
       id="path1191"
       cx="66.705086"
       cy="65.302605"
       r="57.939632" />
    <path
       d="m 82.461798,24.212512 v 13.11628 c 0,0 -16.42357,1.09361 -18.07775,16.20662 -2.58022,1.64394 -8.64693,6.21241 -13.96047,15.46225 v -11.22539 c 0,-7.69761 2.30575,-15.32467 7.07954,-21.36775 4.75368,-6.0325 12.50985,-11.70164 24.95868,-12.19201"
       style="fill:#ffffff;fill-opacity:1;fill-rule:nonzero;stroke:none;stroke-width:0.0352778"
       id="path863" />
    <path
       id="path865"
       style="fill:#ffffff;fill-opacity:1;fill-rule:nonzero;stroke:none;stroke-width:0.133333"
       d="M 301.19141 193.88281 C 282.41146 194.17628 264.43089 203.42157 253.55664 210.35156 C 253.53774 210.35156 253.49834 210.39202 253.40234 210.44531 C 250.749 212.13865 248.5356 213.69943 246.82227 214.93945 L 246.80469 214.93945 C 246.53521 215.16622 246.26433 215.35206 246.01367 215.52539 C 245.68712 215.77862 245.34143 216.03214 244.99609 216.29883 C 244.61077 216.60535 244.26542 216.85928 243.99609 217.08594 C 231.12673 227.36591 207.85084 250.19133 190.57617 291.11133 L 190.57617 353.89844 L 241.83008 353.89844 L 242.12891 322.67188 C 242.49439 284.99187 269.34707 252.09815 306.50977 245.96484 C 309.74175 245.44482 311.66602 245.3125 311.66602 245.3125 L 311.66602 194.71094 C 308.17351 194.07969 304.66917 193.82847 301.19141 193.88281 z M 190.57617 379.00586 L 190.57617 406.99219 L 241.32031 406.99219 L 241.58789 379.00586 L 190.57617 379.00586 z "
       transform="scale(0.26458333)" />
    <path
       d="m 63.472828,44.391412 c -0.1584,0.13052 -0.3168,0.26105 -0.48472,0.381 0.13053,-0.10937 0.29845,-0.23284 0.48472,-0.381"
       style="fill:#ffffff;fill-opacity:1;fill-rule:nonzero;stroke:none;stroke-width:0.0352778"
       id="path869" />
    <path
       d="m 66.443568,12.059322 c -29.71589,0 -53.89069,24.17586 -53.89069,53.89034 0,29.718 24.1748,53.890328 53.89069,53.890328 29.71624,0 53.891042,-24.172328 53.891042,-53.890328 0,-29.71448 -24.174802,-53.89034 -53.891042,-53.89034 z m 0,113.672058 c -32.96497,0 -59.7827904,-26.814638 -59.7827904,-59.781718 0,-32.96356 26.8178204,-59.7852596 59.7827904,-59.7852596 32.96532,0 59.783142,26.8216996 59.783142,59.7852596 0,32.96708 -26.817822,59.781718 -59.783142,59.781718"
       style="fill:#ffffff;fill-opacity:1;fill-rule:nonzero;stroke:none;stroke-width:0.0352778"
       id="path871" />
  </g>
</svg>
