<?xml version="1.0" encoding="UTF-8" standalone="no"?>
<svg
   xmlns:dc="http://purl.org/dc/elements/1.1/"
   xmlns:cc="http://creativecommons.org/ns#"
   xmlns:rdf="http://www.w3.org/1999/02/22-rdf-syntax-ns#"
   xmlns:svg="http://www.w3.org/2000/svg"
   xmlns="http://www.w3.org/2000/svg"
   xmlns:sodipodi="http://sodipodi.sourceforge.net/DTD/sodipodi-0.dtd"
   xmlns:inkscape="http://www.inkscape.org/namespaces/inkscape"
   width="50.799999mm"
   height="128.50069mm"
   viewBox="0 0 50.799999 128.50069"
   version="1.1"
   id="svg22446"
   inkscape:version="1.0.2 (e86c870879, 2021-01-15, custom)"
   sodipodi:docname="MIDI-CC.svg">
  <defs
     id="defs22440" />
  <sodipodi:namedview
     id="base"
     pagecolor="#ffffff"
     bordercolor="#666666"
     borderopacity="1.0"
     inkscape:pageopacity="0.0"
     inkscape:pageshadow="2"
     inkscape:zoom="1.4"
     inkscape:cx="10.901369"
     inkscape:cy="282.57798"
     inkscape:document-units="mm"
     inkscape:current-layer="layer1"
     showgrid="false"
     fit-margin-top="0"
     fit-margin-left="0"
     fit-margin-right="0"
     fit-margin-bottom="0"
     inkscape:window-width="1600"
     inkscape:window-height="882"
     inkscape:window-x="0"
     inkscape:window-y="18"
     inkscape:window-maximized="0"
     inkscape:document-rotation="0" />
  <metadata
     id="metadata22443">
    <rdf:RDF>
      <cc:Work
         rdf:about="">
        <dc:format>image/svg+xml</dc:format>
        <dc:type
           rdf:resource="http://purl.org/dc/dcmitype/StillImage" />
        <dc:title />
      </cc:Work>
    </rdf:RDF>
  </metadata>
  <g
     inkscape:label="Layer 1"
     inkscape:groupmode="layer"
     id="layer1"
     transform="translate(-362.22837,33.900484)">
    <path
       inkscape:connector-curvature="0"
       style="fill:#e6e6e6;fill-opacity:1;fill-rule:nonzero;stroke:none;stroke-width:0.35277775"
       d="m 362.32207,-33.806776 h 50.61256 V 94.506487 h -50.61256 z m 0,0"
       id="path9528" />
    <path
       inkscape:connector-curvature="0"
       style="fill:#ababab;fill-opacity:1;fill-rule:nonzero;stroke:none;stroke-width:0.35277775"
       d="m 413.02837,-33.900484 h -50.8 V 94.600197 h 50.8 z M 412.84094,94.412787 H 362.41439 V -33.713071 h 50.42655 z m 0,0"
       id="path9530" />
    <path
       inkscape:connector-curvature="0"
       style="fill:#000000;fill-opacity:1;stroke:none;stroke-width:0.35277775"
       d="m 378.97152,-24.627051 c 0,0.176389 0.13783,0.319705 0.31422,0.319705 0.17639,0 0.31968,-0.143316 0.31968,-0.319705 v -1.471743 l 0.56777,0.865407 c 0.0661,0.104732 0.14883,0.165364 0.27008,0.165364 0.11575,0 0.20394,-0.06063 0.27009,-0.165364 l 0.57326,-0.881945 v 1.477257 c 0,0.181903 0.14334,0.330729 0.31972,0.330729 0.1819,0 0.32523,-0.148826 0.32523,-0.330729 v -2.353687 c 0,-0.181903 -0.14333,-0.325219 -0.32523,-0.325219 h -0.0716 c -0.13229,0 -0.22602,0.05512 -0.29217,0.165365 l -0.79374,1.289843 -0.78822,-1.284329 c -0.0551,-0.09922 -0.15434,-0.170879 -0.29217,-0.170879 h -0.0716 c -0.18189,0 -0.32522,0.143316 -0.32522,0.325219 z m 0,0"
       id="path20281" />
    <path
       inkscape:connector-curvature="0"
       style="fill:#000000;fill-opacity:1;stroke:none;stroke-width:0.35277775"
       d="m 382.71721,-24.638075 c 0,0.181903 0.14333,0.330729 0.32522,0.330729 0.18189,0 0.32523,-0.148826 0.32523,-0.330729 v -2.359201 c 0,-0.181899 -0.14334,-0.325215 -0.32523,-0.325215 -0.18189,0 -0.32522,0.143316 -0.32522,0.325215 z m 0,0"
       id="path20277" />
    <path
       inkscape:connector-curvature="0"
       style="fill:#000000;fill-opacity:1;stroke:none;stroke-width:0.35277775"
       d="m 384.14634,-24.660124 c 0,0.181903 0.14334,0.325219 0.32523,0.325219 h 0.82684 c 0.93155,0 1.57646,-0.650434 1.57646,-1.48277 v -0.0055 c 0,-0.837848 -0.64491,-1.477257 -1.57646,-1.477257 h -0.82684 c -0.18189,0 -0.32523,0.148826 -0.32523,0.330729 z m 0.65046,-0.264583 v -1.785937 h 0.50161 c 0.53467,0 0.89295,0.369316 0.89295,0.892969 v 0.01101 c 0,0.523656 -0.35828,0.881944 -0.89295,0.881944 z m 0,0"
       id="path20273" />
    <path
       inkscape:connector-curvature="0"
       style="fill:#000000;fill-opacity:1;stroke:none;stroke-width:0.35277775"
       d="m 387.49202,-24.638075 c 0,0.181903 0.1433,0.330729 0.32519,0.330729 0.18193,0 0.32523,-0.148826 0.32523,-0.330729 v -2.359201 c 0,-0.181899 -0.1433,-0.325215 -0.32523,-0.325215 -0.18189,0 -0.32519,0.143316 -0.32519,0.325215 z m 0,0"
       id="path20269" />
    <path
       inkscape:connector-curvature="0"
       style="fill:#000000;fill-opacity:1;stroke:none;stroke-width:0.35277775"
       d="m 389.10382,-25.338116 h 0.73311 c 0.17089,0 0.31419,-0.137806 0.31419,-0.308681 0,-0.170878 -0.1433,-0.30868 -0.31419,-0.30868 h -0.73311 c -0.17088,0 -0.30868,0.137802 -0.30868,0.30868 0,0.170875 0.1378,0.308681 0.30868,0.308681 z m 0,0"
       id="path20265" />
    <path
       inkscape:connector-curvature="0"
       style="fill:#000000;fill-opacity:1;stroke:none;stroke-width:0.35277775"
       d="m 392.22573,-24.285297 c 0.47407,0 0.78825,-0.137802 1.05833,-0.369313 0.0551,-0.05512 0.11025,-0.132291 0.11025,-0.237024 0,-0.165365 -0.1433,-0.297656 -0.30868,-0.297656 -0.0771,0 -0.1433,0.02755 -0.19294,0.07166 -0.18739,0.148826 -0.36928,0.23151 -0.64491,0.23151 -0.50712,0 -0.85989,-0.424437 -0.85989,-0.931555 v -0.0055 c 0,-0.507118 0.36381,-0.926042 0.85989,-0.926042 0.23153,0 0.42443,0.07717 0.60635,0.214972 0.0496,0.02755 0.10471,0.06063 0.1929,0.06063 0.18193,0 0.32523,-0.137805 0.32523,-0.314194 0,-0.115754 -0.0606,-0.209462 -0.12679,-0.259069 -0.24804,-0.181903 -0.54567,-0.303171 -0.99219,-0.303171 -0.90949,0 -1.5434,0.689021 -1.5434,1.532379 v 0.01101 c 0,0.848871 0.64495,1.521354 1.51585,1.521354 z m 0,0"
       id="path20261" />
    <path
       inkscape:connector-curvature="0"
       style="fill:#000000;fill-opacity:1;stroke:none;stroke-width:0.35277775"
       d="m 395.29705,-24.285297 c 0.47406,0 0.78825,-0.137802 1.05833,-0.369313 0.0551,-0.05512 0.11025,-0.132291 0.11025,-0.237024 0,-0.165365 -0.1433,-0.297656 -0.30868,-0.297656 -0.0772,0 -0.1433,0.02755 -0.19294,0.07166 -0.18739,0.148826 -0.36929,0.23151 -0.64491,0.23151 -0.50712,0 -0.8599,-0.424437 -0.8599,-0.931555 v -0.0055 c 0,-0.507118 0.36382,-0.926042 0.8599,-0.926042 0.23153,0 0.42442,0.07717 0.60635,0.214972 0.0496,0.02755 0.10471,0.06063 0.1929,0.06063 0.18193,0 0.32523,-0.137805 0.32523,-0.314194 0,-0.115754 -0.0606,-0.209462 -0.12679,-0.259069 -0.24804,-0.181903 -0.54568,-0.303171 -0.99219,-0.303171 -0.9095,0 -1.5434,0.689021 -1.5434,1.532379 v 0.01101 c 0,0.848871 0.64495,1.521354 1.51585,1.521354 z m 0,0"
       id="path20257" />
    <path
       inkscape:connector-curvature="0"
       style="fill:#000000;fill-opacity:1;fill-rule:nonzero;stroke:none;stroke-width:0.35277775"
       d="m 386.66924,74.336147 c 0,-0.45475 -0.37208,-0.82682 -0.82681,-0.82682 h -8.02986 c -0.45335,0 -0.82543,0.37207 -0.82543,0.82682 v 8.02983 c 0,0.45475 0.37208,0.82682 0.82543,0.82682 h 8.02986 c 0.45473,0 0.82681,-0.37207 0.82681,-0.82682 z m 0,0"
       id="path9914" />
    <path
       inkscape:connector-curvature="0"
       style="fill:#000000;fill-opacity:1;fill-rule:nonzero;stroke:none;stroke-width:0.35277775"
       d="m 398.26955,74.336147 c 0,-0.45475 -0.37344,-0.82682 -0.8268,-0.82682 h -8.02982 c -0.45477,0 -0.82547,0.37207 -0.82547,0.82682 v 8.02983 c 0,0.45475 0.3707,0.82682 0.82547,0.82682 h 8.02982 c 0.45336,0 0.8268,-0.37207 0.8268,-0.82682 z m 0,0"
       id="path9916" />
    <path
       inkscape:connector-curvature="0"
       style="fill:#000000;fill-opacity:1;fill-rule:nonzero;stroke:none;stroke-width:0.35277775"
       d="m 409.8685,74.336147 c 0,-0.45475 -0.37207,-0.82682 -0.82681,-0.82682 h -8.02844 c -0.45477,0 -0.82684,0.37207 -0.82684,0.82682 v 8.02983 c 0,0.45475 0.37207,0.82682 0.82684,0.82682 h 8.02844 c 0.45474,0 0.82681,-0.37207 0.82681,-0.82682 z m 0,0"
       id="path9918" />
    <path
       inkscape:connector-curvature="0"
       style="fill:#000000;fill-opacity:1;fill-rule:nonzero;stroke:none;stroke-width:0.35277775"
       d="m 375.06891,74.336147 c 0,-0.45475 -0.37207,-0.82682 -0.8268,-0.82682 h -8.02848 c -0.45473,0 -0.82681,0.37207 -0.82681,0.82682 v 8.02983 c 0,0.45475 0.37208,0.82682 0.82681,0.82682 h 8.02848 c 0.45473,0 0.8268,-0.37207 0.8268,-0.82682 z m 0,0"
       id="path9920" />
    <path
       inkscape:connector-curvature="0"
       style="fill:#000000;fill-opacity:1;fill-rule:nonzero;stroke:none;stroke-width:0.35277775"
       d="m 386.66924,62.73582 c 0,-0.454753 -0.37208,-0.825445 -0.82681,-0.825445 h -8.02986 c -0.45335,0 -0.82543,0.370692 -0.82543,0.825445 v 8.029827 c 0,0.45475 0.37208,0.82682 0.82543,0.82682 h 8.02986 c 0.45473,0 0.82681,-0.37207 0.82681,-0.82682 z m 0,0"
       id="path9922" />
    <path
       inkscape:connector-curvature="0"
       style="fill:#000000;fill-opacity:1;fill-rule:nonzero;stroke:none;stroke-width:0.35277775"
       d="m 398.26955,62.73582 c 0,-0.454753 -0.37344,-0.825445 -0.8268,-0.825445 h -8.02982 c -0.45477,0 -0.82547,0.370692 -0.82547,0.825445 v 8.029827 c 0,0.45475 0.3707,0.82682 0.82547,0.82682 h 8.02982 c 0.45336,0 0.8268,-0.37207 0.8268,-0.82682 z m 0,0"
       id="path9924" />
    <path
       inkscape:connector-curvature="0"
       style="fill:#000000;fill-opacity:1;fill-rule:nonzero;stroke:none;stroke-width:0.35277775"
       d="m 409.8685,62.73582 c 0,-0.454753 -0.37207,-0.825445 -0.82681,-0.825445 h -8.02844 c -0.45477,0 -0.82684,0.370692 -0.82684,0.825445 v 8.029827 c 0,0.45475 0.37207,0.82682 0.82684,0.82682 h 8.02844 c 0.45474,0 0.82681,-0.37207 0.82681,-0.82682 z m 0,0"
       id="path9926" />
    <path
       inkscape:connector-curvature="0"
       style="fill:#000000;fill-opacity:1;fill-rule:nonzero;stroke:none;stroke-width:0.35277775"
       d="m 375.06891,62.73582 c 0,-0.454753 -0.37207,-0.825445 -0.8268,-0.825445 h -8.02848 c -0.45473,0 -0.82681,0.370692 -0.82681,0.825445 v 8.029827 c 0,0.45475 0.37208,0.82682 0.82681,0.82682 h 8.02848 c 0.45473,0 0.8268,-0.37207 0.8268,-0.82682 z m 0,0"
       id="path9928" />
    <path
       inkscape:connector-curvature="0"
       style="fill:#000000;fill-opacity:1;fill-rule:nonzero;stroke:none;stroke-width:0.35277775"
       d="m 386.66924,51.136875 c 0,-0.454755 -0.37208,-0.826822 -0.82681,-0.826822 h -8.02986 c -0.45335,0 -0.82543,0.372067 -0.82543,0.826822 v 8.028448 c 0,0.454753 0.37208,0.826823 0.82543,0.826823 h 8.02986 c 0.45473,0 0.82681,-0.37207 0.82681,-0.826823 z m 0,0"
       id="path9930" />
    <path
       inkscape:connector-curvature="0"
       style="fill:#000000;fill-opacity:1;fill-rule:nonzero;stroke:none;stroke-width:0.35277775"
       d="m 398.26955,51.136875 c 0,-0.454755 -0.37344,-0.826822 -0.8268,-0.826822 h -8.02982 c -0.45477,0 -0.82547,0.372067 -0.82547,0.826822 v 8.028448 c 0,0.454753 0.3707,0.826823 0.82547,0.826823 h 8.02982 c 0.45336,0 0.8268,-0.37207 0.8268,-0.826823 z m 0,0"
       id="path9932" />
    <path
       inkscape:connector-curvature="0"
       style="fill:#000000;fill-opacity:1;fill-rule:nonzero;stroke:none;stroke-width:0.35277775"
       d="m 409.8685,51.136875 c 0,-0.454755 -0.37207,-0.826822 -0.82681,-0.826822 h -8.02844 c -0.45477,0 -0.82684,0.372067 -0.82684,0.826822 v 8.028448 c 0,0.454753 0.37207,0.826823 0.82684,0.826823 h 8.02844 c 0.45474,0 0.82681,-0.37207 0.82681,-0.826823 z m 0,0"
       id="path9934" />
    <path
       inkscape:connector-curvature="0"
       style="fill:#000000;fill-opacity:1;fill-rule:nonzero;stroke:none;stroke-width:0.35277775"
       d="m 375.06891,51.136875 c 0,-0.454755 -0.37207,-0.826822 -0.8268,-0.826822 h -8.02848 c -0.45473,0 -0.82681,0.372067 -0.82681,0.826822 v 8.028448 c 0,0.454753 0.37208,0.826823 0.82681,0.826823 h 8.02848 c 0.45473,0 0.8268,-0.37207 0.8268,-0.826823 z m 0,0"
       id="path9936" />
    <path
       inkscape:connector-curvature="0"
       style="fill:#000000;fill-opacity:1;fill-rule:nonzero;stroke:none;stroke-width:0.35277775"
       d="m 386.66924,39.536547 c 0,-0.454752 -0.37208,-0.826823 -0.82681,-0.826823 h -8.02986 c -0.45335,0 -0.82543,0.372071 -0.82543,0.826823 V 47.565 c 0,0.454753 0.37208,0.826823 0.82543,0.826823 h 8.02986 c 0.45473,0 0.82681,-0.37207 0.82681,-0.826823 z m 0,0"
       id="path9938" />
    <path
       inkscape:connector-curvature="0"
       style="fill:#000000;fill-opacity:1;fill-rule:nonzero;stroke:none;stroke-width:0.35277775"
       d="m 398.26955,39.536547 c 0,-0.454752 -0.37344,-0.826823 -0.8268,-0.826823 h -8.02982 c -0.45477,0 -0.82547,0.372071 -0.82547,0.826823 V 47.565 c 0,0.454753 0.3707,0.826823 0.82547,0.826823 h 8.02982 c 0.45336,0 0.8268,-0.37207 0.8268,-0.826823 z m 0,0"
       id="path9940" />
    <path
       inkscape:connector-curvature="0"
       style="fill:#000000;fill-opacity:1;fill-rule:nonzero;stroke:none;stroke-width:0.35277775"
       d="m 409.8685,39.536547 c 0,-0.454752 -0.37207,-0.826823 -0.82681,-0.826823 h -8.02844 c -0.45477,0 -0.82684,0.372071 -0.82684,0.826823 V 47.565 c 0,0.454753 0.37207,0.826823 0.82684,0.826823 h 8.02844 c 0.45474,0 0.82681,-0.37207 0.82681,-0.826823 z m 0,0"
       id="path9942" />
    <path
       inkscape:connector-curvature="0"
       style="fill:#000000;fill-opacity:1;fill-rule:nonzero;stroke:none;stroke-width:0.35277775"
       d="m 375.06891,39.536547 c 0,-0.454752 -0.37207,-0.826823 -0.8268,-0.826823 h -8.02848 c -0.45473,0 -0.82681,0.372071 -0.82681,0.826823 V 47.565 c 0,0.454753 0.37208,0.826823 0.82681,0.826823 h 8.02848 c 0.45473,0 0.8268,-0.37207 0.8268,-0.826823 z m 0,0"
       id="path9944" />
  </g>
</svg>
