<?xml version="1.0" encoding="UTF-8" standalone="no"?>
<svg
   xmlns:dc="http://purl.org/dc/elements/1.1/"
   xmlns:cc="http://creativecommons.org/ns#"
   xmlns:rdf="http://www.w3.org/1999/02/22-rdf-syntax-ns#"
   xmlns:svg="http://www.w3.org/2000/svg"
   xmlns="http://www.w3.org/2000/svg"
   xmlns:sodipodi="http://sodipodi.sourceforge.net/DTD/sodipodi-0.dtd"
   xmlns:inkscape="http://www.inkscape.org/namespaces/inkscape"
   width="50.799999mm"
   height="128.50069mm"
   viewBox="0 0 50.799999 128.50069"
   version="1.1"
   id="svg22863"
   inkscape:version="1.0.2 (e86c870879, 2021-01-15, custom)"
   sodipodi:docname="MIDI-Map.svg">
  <defs
     id="defs22857" />
  <sodipodi:namedview
     id="base"
     pagecolor="#ffffff"
     bordercolor="#666666"
     borderopacity="1.0"
     inkscape:pageopacity="0.0"
     inkscape:pageshadow="2"
     inkscape:zoom="0.98994949"
     inkscape:cx="-92.341578"
     inkscape:cy="233.54713"
     inkscape:document-units="mm"
     inkscape:current-layer="layer2"
     showgrid="false"
     fit-margin-top="0"
     fit-margin-left="0"
     fit-margin-right="0"
     fit-margin-bottom="0"
     inkscape:snap-bbox="true"
     inkscape:snap-nodes="false"
     inkscape:bbox-nodes="true"
     inkscape:window-width="1600"
     inkscape:window-height="882"
     inkscape:window-x="0"
     inkscape:window-y="18"
     inkscape:window-maximized="0"
     inkscape:document-rotation="0" />
  <metadata
     id="metadata22860">
    <rdf:RDF>
      <cc:Work
         rdf:about="">
        <dc:format>image/svg+xml</dc:format>
        <dc:type
           rdf:resource="http://purl.org/dc/dcmitype/StillImage" />
        <dc:title />
      </cc:Work>
    </rdf:RDF>
  </metadata>
  <g
     inkscape:label="Layer 1"
     inkscape:groupmode="layer"
     id="layer1"
     transform="translate(-69.85,-117.08894)">
    <path
       inkscape:connector-curvature="0"
       style="fill:#e6e6e6;fill-opacity:1;fill-rule:nonzero;stroke:none;stroke-width:0.35277775"
       d="M 69.942357,117.18265 H 120.5563 V 245.49592 H 69.942357 Z m 0,0"
       id="path11771" />
    <path
       inkscape:connector-curvature="0"
       style="fill:#ababab;fill-opacity:1;fill-rule:nonzero;stroke:none;stroke-width:0.35277775"
       d="m 120.65,117.08894 h -50.8 v 128.50069 h 50.8 z m -0.1874,128.31328 H 70.036055 V 117.27636 H 120.4626 Z m 0,0"
       id="path11773" />
    <path
       inkscape:connector-curvature="0"
       style="fill:#000000;fill-opacity:1;stroke:none;stroke-width:0.35277775"
       d="m 84.875617,126.36238 c 0,0.17639 0.137795,0.3197 0.314184,0.3197 0.176389,0 0.319722,-0.14331 0.319722,-0.3197 v -1.47174 l 0.567761,0.8654 c 0.06615,0.10473 0.148802,0.16537 0.270087,0.16537 0.115746,0 0.20394,-0.0606 0.270086,-0.16537 l 0.573264,-0.88194 v 1.47725 c 0,0.18191 0.143334,0.33073 0.319723,0.33073 0.181892,0 0.32519,-0.14882 0.32519,-0.33073 v -2.35368 c 0,-0.18191 -0.143298,-0.32522 -0.32519,-0.32522 h -0.07168 c -0.132291,0 -0.225989,0.0551 -0.292135,0.16536 l -0.793755,1.28985 -0.788247,-1.28433 c -0.0551,-0.0992 -0.15434,-0.17088 -0.292135,-0.17088 h -0.07165 c -0.181892,0 -0.325226,0.14331 -0.325226,0.32522 z m 0,0"
       id="path21896" />
    <path
       inkscape:connector-curvature="0"
       style="fill:#000000;fill-opacity:1;stroke:none;stroke-width:0.35277775"
       d="m 88.621306,126.35135 c 0,0.18191 0.143333,0.33073 0.325225,0.33073 0.181893,0 0.325226,-0.14882 0.325226,-0.33073 v -2.3592 c 0,-0.1819 -0.143333,-0.32521 -0.325226,-0.32521 -0.181892,0 -0.325225,0.14331 -0.325225,0.32521 z m 0,0"
       id="path21892" />
    <path
       inkscape:connector-curvature="0"
       style="fill:#000000;fill-opacity:1;stroke:none;stroke-width:0.35277775"
       d="m 90.050408,126.32931 c 0,0.1819 0.143334,0.32521 0.325226,0.32521 h 0.826841 c 0.931545,0 1.576458,-0.65043 1.576458,-1.48277 v -0.005 c 0,-0.83784 -0.644913,-1.47725 -1.576458,-1.47725 h -0.826841 c -0.181892,0 -0.325226,0.14882 -0.325226,0.33073 z m 0.650452,-0.26459 v -1.78593 h 0.501615 c 0.53467,0 0.892951,0.36931 0.892951,0.89296 v 0.011 c 0,0.52366 -0.358281,0.88195 -0.892951,0.88195 z m 0,0"
       id="path21888" />
    <path
       inkscape:connector-curvature="0"
       style="fill:#000000;fill-opacity:1;stroke:none;stroke-width:0.35277775"
       d="m 93.396153,126.35135 c 0,0.18191 0.143298,0.33073 0.32519,0.33073 0.181928,0 0.325226,-0.14882 0.325226,-0.33073 v -2.3592 c 0,-0.1819 -0.143298,-0.32521 -0.325226,-0.32521 -0.181892,0 -0.32519,0.14331 -0.32519,0.32521 z m 0,0"
       id="path21884" />
    <path
       inkscape:connector-curvature="0"
       style="fill:#000000;fill-opacity:1;stroke:none;stroke-width:0.35277775"
       d="m 95.007924,125.65131 h 0.733107 c 0.170886,0 0.314184,-0.1378 0.314184,-0.30868 0,-0.17088 -0.143298,-0.30868 -0.314184,-0.30868 h -0.733107 c -0.170886,0 -0.308681,0.1378 -0.308681,0.30868 0,0.17088 0.137795,0.30868 0.308681,0.30868 z m 0,0"
       id="path21880" />
    <path
       inkscape:connector-curvature="0"
       style="fill:#000000;fill-opacity:1;stroke:none;stroke-width:0.35277775"
       d="m 96.693427,126.36238 c 0,0.17639 0.137829,0.3197 0.314219,0.3197 0.176387,0 0.319685,-0.14331 0.319685,-0.3197 v -1.47174 l 0.567762,0.8654 c 0.06615,0.10473 0.148836,0.16537 0.270086,0.16537 0.115748,0 0.203941,-0.0606 0.270087,-0.16537 l 0.573265,-0.88194 v 1.47725 c 0,0.18191 0.143332,0.33073 0.319722,0.33073 0.181891,0 0.325226,-0.14882 0.325226,-0.33073 v -2.35368 c 0,-0.18191 -0.143335,-0.32522 -0.325226,-0.32522 h -0.07165 c -0.132292,0 -0.226026,0.0551 -0.292171,0.16536 l -0.793749,1.28985 -0.788213,-1.28433 c -0.05514,-0.0992 -0.154339,-0.17088 -0.292168,-0.17088 h -0.07165 c -0.181893,0 -0.325225,0.14331 -0.325225,0.32522 z m 0,0"
       id="path21872" />
    <path
       inkscape:connector-curvature="0"
       style="fill:#000000;fill-opacity:1;stroke:none;stroke-width:0.35277775"
       d="m 100.13439,126.3734 c 0,0.17088 0.12678,0.30868 0.29767,0.30868 0.13779,0 0.24804,-0.0772 0.30314,-0.20394 l 0.20398,-0.49059 h 1.30637 l 0.19843,0.46854 c 0.0606,0.13229 0.15985,0.22599 0.31419,0.22599 0.17088,0 0.30868,-0.14331 0.30868,-0.31419 0,-0.0441 -0.0109,-0.0882 -0.0332,-0.13229 l -1.03629,-2.33164 c -0.0717,-0.15985 -0.19843,-0.25907 -0.37482,-0.25907 h -0.0386 c -0.17639,0 -0.30869,0.0992 -0.38033,0.25907 l -1.03079,2.33164 c -0.0219,0.0441 -0.0386,0.0937 -0.0386,0.1378 z m 1.04732,-0.95911 0.41339,-0.97565 0.40791,0.97565 z m 0,0"
       id="path21876" />
    <path
       inkscape:connector-curvature="0"
       style="fill:#000000;fill-opacity:1;stroke:none;stroke-width:0.35277775"
       d="m 103.54924,126.35135 c 0,0.18191 0.14333,0.33073 0.32522,0.33073 0.18189,0 0.32523,-0.14882 0.32523,-0.33073 v -0.58428 h 0.49607 c 0.66146,0 1.19617,-0.35829 1.19617,-1.0418 v -0.011 c 0,-0.60633 -0.42997,-1.02526 -1.13552,-1.02526 h -0.88195 c -0.18189,0 -0.32522,0.14883 -0.32522,0.33073 z m 0.65045,-1.16306 v -0.9095 h 0.50161 c 0.32519,0 0.52917,0.15985 0.52917,0.45199 v 0.005 c 0,0.25356 -0.18743,0.452 -0.51816,0.452 z m 0,0"
       id="path21868" />
    <path
       inkscape:connector-curvature="0"
       style="fill:#ffd714;fill-opacity:1;stroke:none;stroke-width:0.35277775"
       d=""
       id="path21860" />
    <path
       inkscape:connector-curvature="0"
       style="fill:#ffd714;fill-opacity:1;stroke:none;stroke-width:0.35277775"
       d=""
       id="path21804" />
    <path
       inkscape:connector-curvature="0"
       style="fill:#ffd714;fill-opacity:1;stroke:none;stroke-width:0.35277775"
       d=""
       id="path21824" />
    <path
       inkscape:connector-curvature="0"
       style="fill:#ffd714;fill-opacity:1;stroke:none;stroke-width:0.35277775"
       d=""
       id="path21756" />
  </g>
  <g
     inkscape:groupmode="layer"
     id="layer2"
     inkscape:label="widgets"
     style="display:none">
    <rect
       style="opacity:1;vector-effect:none;fill:#ffff00;fill-opacity:1;fill-rule:evenodd;stroke:none;stroke-width:0.67532277;stroke-linecap:butt;stroke-linejoin:miter;stroke-miterlimit:4;stroke-dasharray:none;stroke-dashoffset:0;stroke-opacity:1;paint-order:normal"
       id="rect23983"
       width="43.999363"
       height="102.66385"
       x="3.3996489"
       y="14.838721" />
  </g>
</svg>
